<?xml version="1.0" standalone="no"?>
<!DOCTYPE svg PUBLIC "-//W3C//DTD SVG 20010904//EN"
 "http://www.w3.org/TR/2001/REC-SVG-20010904/DTD/svg10.dtd">
<svg version="1.0" xmlns="http://www.w3.org/2000/svg"
 width="232.000000pt" height="232.000000pt" viewBox="0 0 232.000000 232.000000"
 preserveAspectRatio="xMidYMid meet">
<metadata>
Created by potrace 1.11, written by Peter Selinger 2001-2013
</metadata>
<g transform="translate(0.000000,232.000000) scale(0.100000,-0.100000)"
fill="#fff" stroke="none">
<path d="M1155 2130 c-11 -4 -30 -6 -42 -3 -14 3 -25 -2 -32 -14 -11 -17 -12
-17 -26 2 -16 20 -16 20 -53 0 -23 -13 -38 -29 -40 -43 -3 -20 -9 -22 -43 -20
-21 1 -44 -3 -51 -10 -7 -7 -22 -12 -35 -12 -13 0 -23 -4 -23 -9 0 -15 -38
-20 -44 -5 -4 9 -21 13 -56 13 -69 -2 -94 -27 -86 -85 l5 -41 -57 -13 c-31 -7
-66 -18 -76 -23 -14 -7 -21 -5 -28 7 -5 9 -15 16 -22 16 -15 0 -56 -45 -56
-61 0 -7 -11 -9 -25 -6 -14 2 -24 2 -23 -2 31 -58 32 -63 20 -94 -8 -21 -8
-35 -2 -41 12 -12 13 -29 2 -22 -9 5 -77 -16 -88 -27 -4 -3 -15 -2 -25 4 -13
6 -25 6 -38 -1 -21 -11 -40 3 -21 15 6 4 8 11 4 16 -4 6 -11 6 -20 -2 -11 -9
-14 -8 -14 5 0 9 -4 16 -10 16 -17 0 -11 -26 9 -44 22 -20 33 -103 15 -110 -6
-2 -15 -21 -19 -42 -5 -30 -3 -41 11 -51 17 -12 16 -13 -5 -13 -12 0 -39 -16
-59 -37 -31 -30 -33 -35 -15 -30 18 4 23 1 23 -13 0 -11 5 -22 11 -26 6 -3 8
-16 5 -29 -4 -15 -1 -25 8 -28 8 -3 12 -15 9 -29 -3 -18 3 -27 31 -42 38 -20
39 -30 3 -31 -26 0 -35 -41 -17 -75 7 -14 8 -26 2 -33 -12 -16 -13 -75 -1 -82
5 -4 9 -15 9 -25 0 -26 29 -52 52 -47 11 3 22 -1 25 -9 3 -8 12 -14 19 -14 12
0 12 -4 4 -20 -9 -16 -8 -22 6 -27 33 -12 62 -50 69 -88 10 -55 20 -65 54 -55
24 7 32 3 54 -22 22 -25 29 -28 47 -18 23 12 41 3 68 -33 8 -10 23 -16 35 -15
12 1 39 -6 60 -17 26 -13 42 -16 51 -10 69 51 65 50 201 50 75 0 152 -6 182
-14 44 -11 62 -11 105 0 31 8 107 14 183 14 124 0 132 -1 176 -27 50 -31 87
-36 95 -14 3 8 23 24 44 35 32 16 41 18 56 7 9 -7 25 -11 35 -9 9 3 20 0 23
-6 10 -15 53 -14 59 2 3 9 9 7 24 -6 12 -10 27 -15 37 -11 9 3 22 1 30 -5 7
-6 16 -8 19 -4 4 3 7 1 7 -6 0 -7 4 -9 10 -6 19 12 11 35 -11 32 -12 -1 -24 4
-26 11 -3 6 1 12 7 12 7 0 23 9 37 20 14 11 22 20 17 20 -4 0 1 6 11 14 13 9
18 24 17 54 -1 30 3 42 16 47 14 5 15 4 5 -6 -21 -21 -15 -29 15 -23 23 5 30
1 39 -18 l12 -23 0 23 c1 14 -7 26 -22 33 -20 9 -25 22 -34 91 l-11 80 29 28
c16 15 29 31 29 37 0 5 9 19 21 32 20 21 22 21 39 6 12 -11 20 -13 25 -6 3 6
-1 14 -9 17 -9 3 -16 12 -16 19 0 11 -18 55 -39 95 -4 8 -18 16 -30 18 -22 4
-28 17 -11 27 6 4 10 12 9 18 -3 26 2 34 27 46 20 9 25 17 22 38 -2 22 2 28
27 36 36 11 55 26 55 40 0 5 -8 2 -19 -7 -17 -16 -19 -16 -26 1 -7 17 -8 17
-15 -2 -7 -18 -8 -17 -15 10 -12 51 -14 55 -33 55 -14 0 -19 7 -19 30 0 23 5
30 21 30 14 0 17 3 9 11 -8 8 -17 8 -32 0 -14 -8 -21 -8 -21 -1 0 19 -30 23
-49 6 -17 -16 -18 -15 -14 8 3 13 14 27 25 29 17 5 19 11 13 38 -6 27 -3 35
21 54 16 13 26 26 23 30 -4 3 -14 -1 -23 -10 -15 -15 -42 -12 -32 4 3 4 -10 7
-29 6 -19 0 -35 3 -35 7 0 4 -9 17 -20 28 -19 19 -19 22 -5 43 8 12 32 34 52
50 38 28 33 34 -14 16 -31 -11 -93 -4 -93 12 0 5 -10 23 -21 39 -20 26 -20 32
-9 59 7 17 16 31 21 31 5 0 9 4 9 10 0 6 -9 6 -22 1 -13 -5 -23 -15 -23 -22 0
-10 -15 -14 -56 -14 -31 0 -63 -6 -72 -13 -14 -12 -16 -8 -22 32 -4 24 -4 49
-1 54 3 6 0 13 -6 15 -10 4 -9 8 2 16 13 9 12 11 -3 11 -11 0 -21 -9 -24 -20
-3 -11 -11 -20 -17 -20 -22 0 -56 31 -56 51 0 12 -5 19 -12 16 -7 -2 -13 -13
-12 -24 0 -16 -8 -22 -35 -27 -20 -3 -37 -1 -39 4 -2 6 -15 10 -29 10 -14 0
-31 6 -37 14 -6 8 -20 16 -31 18 -15 2 -19 -2 -17 -18 2 -14 -7 -29 -23 -42
-14 -11 -25 -30 -26 -43 l-1 -24 -7 25 c-4 14 -19 31 -34 38 -15 7 -27 17 -27
23 0 5 -13 9 -29 9 -24 0 -32 7 -50 45 -22 47 -24 49 -56 35z m-75 -491 c0
-11 -5 -19 -11 -19 -5 0 -8 4 -5 9 3 5 -1 14 -9 21 -12 10 -22 6 -55 -28 -48
-47 -53 -82 -13 -82 14 0 41 11 59 25 46 35 54 32 54 -20 0 -32 -4 -45 -14
-45 -11 0 -13 9 -9 37 l6 38 -33 -28 c-23 -20 -42 -27 -63 -25 -66 7 -61 73 9
117 48 31 84 31 84 0z m84 -46 c-7 -16 -14 -36 -14 -46 0 -10 -4 -15 -10 -12
-16 10 -11 57 8 71 27 21 32 16 16 -13z m33 -5 c-3 -8 -6 -5 -6 6 -1 11 2 17
5 13 3 -3 4 -12 1 -19z m56 10 c-13 -17 -14 -58 -2 -58 5 0 23 14 41 30 34 33
43 36 54 18 4 -6 -2 -19 -14 -29 -12 -9 -22 -20 -22 -23 0 -13 28 -5 53 14 33
26 40 25 31 -2 -6 -20 -5 -21 10 -9 18 15 22 1 4 -17 -17 -17 -38 -15 -38 3 0
14 -3 14 -24 0 -23 -15 -56 -12 -56 6 0 6 -9 5 -21 -1 -38 -21 -69 36 -37 68
16 16 33 16 21 0z m21 -12 c-3 -9 -10 -16 -15 -16 -5 0 -4 9 3 20 14 22 21 20
12 -4z m375 -45 c33 -23 38 -41 12 -48 -26 -7 -26 -8 0 -34 45 -45 2 -71 -81
-49 -33 9 -40 15 -35 28 4 9 10 28 13 42 3 13 15 32 26 41 12 10 18 21 14 25
-4 4 -14 1 -23 -6 -12 -10 -15 -10 -15 2 0 8 3 18 7 22 10 10 54 -2 82 -23z
m-199 -11 c0 -24 3 -28 18 -23 13 5 15 3 5 -7 -19 -20 -43 -4 -43 30 0 16 5
30 10 30 6 0 10 -13 10 -30z m-601 -11 c14 -32 14 -32 26 -9 10 19 12 11 11
-55 -1 -51 -5 -80 -13 -82 -20 -7 -33 31 -23 66 9 32 -3 54 -14 25 -4 -10 -14
-14 -26 -11 -15 4 -24 -2 -35 -24 -9 -16 -22 -29 -31 -29 -8 0 -17 -7 -20 -15
-4 -8 -11 -15 -17 -15 -17 0 -47 32 -47 49 0 11 8 7 26 -14 l25 -30 -6 44 -6
44 21 -24 20 -24 20 24 c11 13 20 31 20 42 0 26 18 33 22 9 6 -37 23 -20 21
20 -2 48 7 51 26 9z m-109 -37 c0 -5 -7 -9 -15 -9 -8 0 -12 4 -9 9 3 4 9 8 15
8 5 0 9 -4 9 -8z m-85 -22 c3 -5 1 -10 -4 -10 -6 0 -11 5 -11 10 0 6 2 10 4
10 3 0 8 -4 11 -10z m1085 -81 c16 -30 5 -49 -28 -49 -53 0 -70 53 -20 63 13
2 26 5 30 6 4 0 12 -8 18 -20z m-1082 -21 c2 -16 -1 -28 -7 -28 -6 0 -11 9
-11 19 0 26 -17 36 -35 21 -8 -7 -15 -8 -15 -3 0 17 14 24 40 21 19 -2 26 -10
28 -30z m13 -86 c-14 -5 -79 49 -80 66 -1 7 20 -4 45 -24 25 -21 41 -40 35
-42z m-152 45 c14 -18 2 -30 -15 -16 -11 9 -16 5 -24 -16 -14 -37 -13 -60 5
-75 11 -9 23 -3 63 34 54 51 57 52 66 31 13 -35 -31 -84 -50 -54 -4 7 -16 1
-34 -16 -42 -40 -64 -31 -68 28 -2 32 2 57 13 73 18 27 28 30 44 11z m1279
-30 c4 -33 -18 -45 -54 -29 -23 11 -32 41 -17 56 4 4 21 6 38 4 24 -2 31 -8
33 -31z m92 -36 c0 -4 -20 -14 -45 -21 -46 -13 -52 -30 -9 -30 13 0 24 -5 24
-10 0 -6 -10 -8 -22 -5 -13 3 -29 1 -37 -4 -12 -8 -12 -12 -2 -25 8 -9 21 -16
30 -17 9 0 11 -3 4 -5 -26 -11 -53 16 -53 52 0 31 4 37 43 54 46 21 67 25 67
11z"/>
<rect x="420" y="1100" width="1500" height="600" fill="#fff" />
<path d="M1320 1580 c-8 -5 -12 -12 -9 -15 4 -3 12 1 19 10 14 17 11 19 -10 5z"/>
<path d="M1616 1524 c-9 -23 -8 -24 13 -24 28 0 35 17 12 29 -15 8 -20 7 -25
-5z"/>
<path d="M1572 1456 c-13 -28 -1 -36 54 -36 41 0 43 11 8 39 -35 27 -48 26
-62 -3z"/>
<path d="M860 1408 c0 -23 3 -29 9 -19 8 12 4 51 -5 51 -2 0 -4 -15 -4 -32z"/>
<path d="M1687 1373 c-14 -13 -6 -23 18 -23 16 0 25 6 25 15 0 15 -31 21 -43
8z"/>
<path d="M572 1258 c-16 -16 -15 -28 2 -28 7 0 16 9 19 20 6 23 -3 26 -21 8z"/>
<path d="M1758 1303 c-22 -6 -23 -19 -2 -27 26 -10 34 -7 34 14 0 20 -2 21
-32 13z"/>
<path d="M690 561 c-40 -7 -40 -10 -21 -147 25 -185 122 -266 279 -233 46 9
65 19 97 53 24 24 46 60 54 86 15 52 37 80 61 80 24 0 35 -15 59 -81 26 -68
74 -123 120 -138 47 -15 145 -14 184 3 65 28 115 115 124 218 3 32 10 61 14
64 14 8 11 74 -3 79 -7 2 -26 6 -43 9 -16 2 -32 5 -35 6 -3 1 -42 1 -88 0 -99
-2 -179 -21 -249 -60 -29 -17 -64 -30 -78 -30 -14 0 -57 16 -95 35 -39 19 -96
42 -127 50 -57 15 -186 18 -253 6z m304 -65 c65 -29 86 -57 86 -114 0 -52 -37
-127 -78 -157 -39 -29 -163 -28 -211 0 -49 29 -84 103 -89 187 -4 58 -2 69 17
85 12 10 34 21 49 25 49 12 171 -2 226 -26z m608 -6 c37 -45 16 -176 -39 -240
-27 -31 -42 -39 -91 -49 -80 -16 -148 -1 -180 38 -58 73 -70 174 -27 217 15
15 32 23 41 20 8 -3 12 -2 9 4 -12 20 88 40 179 36 78 -3 92 -7 108 -26z"/>
<path d="M878 456 c-20 -6 -43 -17 -50 -24 -6 -6 -18 -12 -25 -12 -7 0 -13 -7
-13 -15 0 -13 4 -14 33 -2 42 17 64 12 71 -19 9 -34 59 -34 82 1 12 18 22 24
35 20 13 -5 19 -1 19 10 0 16 -72 55 -100 54 -8 -1 -32 -6 -52 -13z"/>
<path d="M1380 461 c-47 -10 -82 -30 -77 -44 2 -7 13 -11 25 -9 15 2 21 -3 24
-20 5 -33 51 -47 78 -23 11 10 20 24 20 32 0 13 5 14 67 17 49 2 41 19 -14 32
-26 6 -57 13 -68 16 -11 3 -36 2 -55 -1z"/>
</g>
</svg>
