<?xml version="1.0" standalone="no"?>
<!DOCTYPE svg PUBLIC "-//W3C//DTD SVG 20010904//EN"
 "http://www.w3.org/TR/2001/REC-SVG-20010904/DTD/svg10.dtd">
<svg version="1.0" xmlns="http://www.w3.org/2000/svg"
 width="800.000000pt" height="800.000000pt" viewBox="0 0 800.000000 800.000000"
 preserveAspectRatio="xMidYMid meet">
<metadata>
Created by potrace 1.11, written by Peter Selinger 2001-2013
</metadata>
<g transform="translate(0.000000,800.000000) scale(0.100000,-0.100000)"
fill="#000000" stroke="none">
<path d="M3110 5312 l0 -1108 108 -69 c295 -192 504 -398 767 -759 l20 -27 61
93 c91 137 183 248 318 383 287 287 599 486 964 615 72 26 92 37 92 52 0 17 7
19 73 17 39 -1 106 6 147 15 62 14 255 45 283 46 4 0 7 63 7 140 l0 140 -415
0 -415 0 0 495 0 495 -555 0 -555 0 0 290 0 290 -450 0 -450 0 0 -1108z m210
933 l0 -75 -55 0 -55 0 0 75 0 75 55 0 55 0 0 -75z m450 0 l0 -75 -55 0 -55 0
0 75 0 75 55 0 55 0 0 -75z m150 -210 l0 -75 -55 0 -55 0 0 75 0 75 55 0 55 0
0 -75z m-300 -180 l0 -75 -55 0 -55 0 0 75 0 75 55 0 55 0 0 -75z m-300 -230
l0 -75 -55 0 -55 0 0 75 0 75 55 0 55 0 0 -75z m1300 0 l0 -75 -55 0 -55 0 0
75 0 75 55 0 55 0 0 -75z m-700 -200 l0 -75 -55 0 -55 0 0 75 0 75 55 0 55 0
0 -75z m290 0 l0 -75 -55 0 -55 0 0 75 0 75 55 0 55 0 0 -75z m410 -400 l0
-75 -55 0 -55 0 0 75 0 75 55 0 55 0 0 -75z m-1300 -220 l0 -75 -55 0 -55 0 0
75 0 75 55 0 55 0 0 -75z m2050 -150 l0 -75 -55 0 -55 0 0 75 0 75 55 0 55 0
0 -75z m360 0 l0 -75 -55 0 -55 0 0 75 0 75 55 0 55 0 0 -75z m-1810 -60 l0
-75 -55 0 -55 0 0 75 0 75 55 0 55 0 0 -75z"/>
<path d="M2070 5016 l0 -454 73 -12 c39 -7 113 -21 162 -32 50 -11 100 -23
113 -25 21 -5 22 -2 22 51 l0 56 55 0 55 0 0 -74 0 -73 93 -33 c50 -18 125
-47 165 -66 l72 -33 0 45 0 44 55 0 55 0 0 -70 c0 -69 1 -71 33 -90 17 -11 35
-20 40 -20 4 0 7 279 7 620 l0 620 -500 0 -500 0 0 -454z m180 259 l0 -75 -55
0 -55 0 0 75 0 75 55 0 55 0 0 -75z m370 0 l0 -75 -55 0 -55 0 0 75 0 75 55 0
55 0 0 -75z m370 0 l0 -75 -55 0 -55 0 0 75 0 75 55 0 55 0 0 -75z m-740 -370
l0 -75 -55 0 -55 0 0 75 0 75 55 0 55 0 0 -75z m590 0 l0 -75 -55 0 -55 0 0
75 0 75 55 0 55 0 0 -75z"/>
<path d="M1505 3904 c-153 -12 -373 -37 -462 -52 l-103 -17 70 -76 69 -76 108
18 c298 51 738 72 1023 50 604 -48 1182 -227 1630 -506 58 -36 92 -53 75 -39
-447 385 -960 595 -1660 679 -124 15 -636 28 -750 19z"/>
<path d="M5847 3879 c-542 -45 -1044 -198 -1429 -436 -97 -60 -259 -179 -323
-237 -33 -29 -21 -24 65 29 274 170 622 311 984 400 308 75 580 106 926 107
258 0 408 -10 630 -43 74 -11 153 -22 175 -25 39 -5 41 -4 107 69 l68 75 -65
11 c-98 17 -277 39 -410 51 -138 11 -583 11 -728 -1z"/>
<path d="M5640 3629 c-519 -45 -1045 -222 -1537 -514 -69 -41 -126 -75 -128
-75 -2 0 -43 25 -91 55 -341 214 -855 407 -1281 480 -408 70 -886 58 -1273
-31 -158 -36 -526 -158 -553 -183 -8 -8 297 -221 315 -221 6 0 43 12 82 26
102 37 314 90 452 113 348 58 722 53 1059 -15 386 -78 809 -276 1136 -532 86
-67 106 -78 149 -82 46 -5 53 -3 112 41 157 114 412 260 603 346 722 323 1422
370 2091 141 l121 -41 144 98 c79 53 148 101 153 105 4 5 -27 25 -70 44 -235
109 -525 190 -834 231 -139 19 -505 27 -650 14z"/>
<path d="M1262 2320 c-31 -14 -47 -29 -58 -56 -33 -78 5 -134 117 -175 65 -24
72 -30 63 -53 -9 -22 -101 -22 -133 1 -23 16 -25 15 -43 -6 -23 -29 -23 -43 0
-69 51 -58 201 -56 264 5 77 73 29 176 -100 214 -109 32 -65 78 55 55 36 -7
43 -5 53 14 6 11 8 29 5 39 -15 49 -144 67 -223 31z"/>
<path d="M1610 2327 l-35 -12 -3 -179 c-2 -123 1 -183 9 -192 7 -8 30 -14 55
-14 l44 0 0 59 0 58 59 7 c65 7 118 36 139 76 18 35 10 124 -14 151 -47 53
-169 75 -254 46z m144 -90 c12 -9 17 -23 14 -47 -3 -33 -5 -35 -45 -38 l-43
-3 0 44 c0 24 3 47 7 50 11 11 48 8 67 -6z"/>
<path d="M1973 2333 c-23 -4 -23 -5 -23 -192 0 -132 4 -191 12 -199 7 -7 31
-12 55 -12 l43 0 0 194 c0 107 -3 197 -7 199 -16 8 -59 14 -80 10z"/>
<path d="M2245 2321 c-75 -35 -115 -102 -115 -193 1 -135 99 -219 239 -205 65
7 93 29 89 71 -3 28 -6 31 -33 28 -100 -9 -118 -6 -147 27 -48 54 -35 156 23
187 35 18 61 18 104 0 33 -14 36 -14 46 5 18 34 7 63 -31 81 -45 23 -124 23
-175 -1z"/>
<path d="M3150 2331 c-86 -27 -144 -90 -155 -170 -13 -93 27 -171 109 -213 56
-29 165 -30 221 -3 l40 20 3 88 c2 57 -1 94 -9 103 -8 10 -35 14 -90 14 -75 0
-79 -1 -85 -24 -11 -44 3 -66 42 -66 31 0 34 -2 34 -30 0 -28 -2 -30 -41 -30
-51 0 -75 13 -94 50 -55 105 37 205 154 166 51 -16 71 -9 71 28 0 31 -11 43
-53 61 -38 16 -105 19 -147 6z"/>
<path d="M3491 2331 c-18 -5 -37 -15 -42 -23 -5 -7 -9 -88 -9 -180 0 -192 3
-201 74 -196 l41 3 3 63 c4 76 20 81 59 20 53 -85 79 -101 127 -82 39 15 37
40 -5 94 l-40 51 29 34 c17 18 33 47 37 64 10 44 -25 115 -67 137 -37 20 -154
28 -207 15z m140 -100 c20 -16 22 -23 14 -47 -9 -24 -17 -30 -48 -32 l-37 -3
0 50 c0 47 2 51 24 51 13 0 34 -9 47 -19z"/>
<path d="M5174 2331 c-17 -4 -36 -11 -42 -15 -13 -8 -17 -333 -4 -352 17 -26
60 -38 142 -38 128 0 185 38 185 121 0 39 -5 50 -31 71 l-31 24 24 24 c32 32
32 96 -1 129 -40 40 -153 57 -242 36z m144 -93 c32 -32 -2 -68 -64 -68 -21 0
-24 4 -24 40 0 40 0 40 38 40 21 0 43 -5 50 -12z m17 -183 c0 -26 -5 -31 -36
-39 -52 -13 -69 -3 -69 39 l0 36 53 -3 c50 -3 52 -4 52 -33z"/>
<path d="M5614 2321 c-142 -64 -150 -295 -14 -371 36 -20 59 -25 111 -24 76 0
116 19 163 77 28 35 31 47 34 115 3 66 0 83 -20 122 -47 87 -176 125 -274 81z
m136 -86 c33 -17 45 -48 44 -113 -1 -76 -50 -115 -121 -97 -58 14 -71 157 -19
202 32 27 56 29 96 8z"/>
<path d="M6075 2321 c-75 -35 -115 -102 -115 -193 1 -141 116 -230 257 -198
117 26 179 143 143 272 -31 112 -173 171 -285 119z m142 -95 c26 -22 28 -30
28 -94 0 -88 -17 -112 -81 -112 -60 0 -84 32 -84 112 0 52 3 63 29 89 36 36
70 37 108 5z"/>
<path d="M2505 2316 c-19 -13 -18 -16 13 -76 18 -34 49 -86 68 -114 28 -42 34
-60 34 -104 0 -76 11 -92 65 -92 l45 0 0 63 c0 57 5 70 60 167 33 58 60 112
60 122 0 27 -29 48 -64 48 -40 0 -46 -7 -77 -87 -13 -35 -27 -63 -30 -63 -3 0
-16 23 -29 51 -44 92 -94 122 -145 85z"/>
<path d="M3862 2314 c-21 -15 -22 -21 -22 -184 0 -208 -6 -200 152 -200 109 0
138 9 138 45 0 40 -10 45 -96 45 l-84 0 0 35 0 35 70 0 c77 0 97 15 84 65 -6
24 -9 25 -80 25 l-74 0 0 30 0 29 81 3 c71 3 83 6 89 23 4 11 4 30 -1 43 -8
21 -13 22 -121 22 -87 0 -119 -4 -136 -16z"/>
<path d="M4215 2316 c-19 -13 -20 -26 -20 -186 0 -211 -8 -200 150 -200 123 0
135 5 135 57 l0 33 -85 0 -85 0 0 35 0 35 63 0 c77 0 89 8 85 51 l-3 34 -72 3
-73 3 0 29 0 30 74 0 c82 0 100 11 94 57 l-3 28 -120 3 c-93 2 -125 -1 -140
-12z"/>
<path d="M4562 2318 c-8 -8 -12 -65 -12 -189 0 -198 2 -203 67 -197 l38 3 3
118 3 119 54 -110 c56 -115 72 -132 125 -132 69 0 70 2 70 191 0 98 -4 178
-10 190 -8 14 -21 19 -55 19 l-45 0 0 -122 0 -123 -51 105 c-27 57 -57 113
-66 122 -19 21 -102 25 -121 6z"/>
<path d="M6430 2152 c0 -210 5 -225 73 -220 l42 3 5 68 5 68 63 -70 c51 -58
69 -71 93 -71 27 0 69 29 69 48 0 4 -30 41 -66 81 l-67 72 58 59 c62 63 74
101 39 127 -35 26 -57 15 -126 -59 l-67 -73 -1 61 c0 33 -5 65 -12 72 -7 7
-34 12 -60 12 l-48 0 0 -178z"/>
</g>
</svg>
