<?xml version="1.0" standalone="no"?>
<!DOCTYPE svg PUBLIC "-//W3C//DTD SVG 20010904//EN"
 "http://www.w3.org/TR/2001/REC-SVG-20010904/DTD/svg10.dtd">
<svg version="1.0" xmlns="http://www.w3.org/2000/svg"
 width="1063.000000pt" height="1063.000000pt" viewBox="0 0 1063.000000 1063.000000"
 preserveAspectRatio="xMidYMid meet">
<metadata>
Created by potrace 1.11, written by Peter Selinger 2001-2013
</metadata>
<g transform="translate(0.000000,1063.000000) scale(0.100000,-0.100000)"
fill="#000000" stroke="none">
<path d="M3570 7515 l0 -1035 -368 0 c-203 0 -464 -3 -580 -7 l-212 -6 0 -682
0 -682 43 -6 c87 -12 266 -47 390 -76 71 -17 130 -31 133 -31 2 0 4 38 4 85
l0 85 80 0 79 0 3 -111 3 -111 35 -13 c19 -7 92 -33 162 -59 70 -25 166 -64
214 -86 48 -22 88 -40 90 -40 2 0 4 27 4 60 l0 60 80 0 79 0 3 -101 3 -102 60
-30 c91 -45 95 -47 196 -114 345 -225 576 -414 805 -659 176 -187 298 -338
427 -526 l45 -67 58 92 c32 51 70 108 84 127 15 19 55 73 90 120 181 243 501
561 763 758 330 249 705 449 1069 568 113 37 118 40 118 67 l0 28 103 -2 c71
-2 120 3 162 14 68 19 324 62 433 73 l72 7 0 213 0 214 -622 2 -623 3 -3 748
-2 747 -845 0 -845 0 0 430 0 429 -127 3 -128 3 -3 323 -2 322 -765 0 -765 0
0 -1035z m405 675 l0 -155 -110 0 -110 0 -3 158 -3 158 113 -3 113 -3 0 -155z
m953 3 l-3 -158 -110 0 -110 0 -3 158 -3 157 116 0 116 0 -3 -157z m-618 -543
l0 -110 -80 0 -80 0 0 103 c0 57 3 107 7 110 3 4 39 7 80 7 l73 0 0 -110z
m690 0 l0 -110 -80 0 -80 0 0 110 0 110 80 0 80 0 0 -110z m-1040 -315 l0
-156 -112 3 -113 3 -3 153 -3 152 116 0 115 0 0 -155z m1260 5 l0 -110 -80 0
-80 0 0 110 0 110 80 0 80 0 0 -110z m-452 -277 l-3 -108 -77 -3 -78 -3 0 111
0 110 80 0 81 0 -3 -107z m-458 -343 l0 -110 -80 0 -80 0 0 110 0 110 80 0 80
0 0 -110z m1970 0 l0 -110 -80 0 -80 0 0 110 0 110 80 0 80 0 0 -110z m-1060
-320 l0 -110 -80 0 -80 0 0 110 0 110 80 0 80 0 0 -110z m450 0 l0 -110 -80 0
-80 0 0 110 0 110 80 0 80 0 0 -110z m-2980 -220 l0 -110 -80 0 -80 0 0 110 0
110 80 0 80 0 0 -110z m560 0 l0 -110 -80 0 -80 0 0 110 0 110 80 0 80 0 0
-110z m560 0 l0 -110 -80 0 -80 0 0 110 0 110 80 0 80 0 0 -110z m2470 -380
l0 -110 -80 0 -80 0 0 110 0 110 80 0 80 0 0 -110z m-3590 -180 l0 -110 -80 0
-80 0 0 110 0 110 80 0 80 0 0 -110z m890 0 l0 -110 -80 0 -80 0 0 110 0 110
80 0 80 0 0 -110z m730 -150 l0 -111 -77 3 -78 3 -3 108 -3 107 81 0 80 0 0
-110z m3108 -217 l-3 -108 -77 -3 -78 -3 0 111 0 110 80 0 81 0 -3 -107z m532
-3 l0 -111 -77 3 -78 3 -3 108 -3 107 81 0 80 0 0 -110z m-2732 -92 l3 -108
-81 0 -80 0 0 110 0 111 78 -3 77 -3 3 -107z"/>
<path d="M1390 4544 c-213 -18 -304 -27 -359 -37 l-64 -12 122 -135 c106 -117
126 -135 149 -132 15 2 90 12 167 22 598 83 1270 58 1830 -69 339 -76 629
-172 930 -308 125 -57 383 -189 440 -226 18 -12 73 -47 121 -77 48 -30 120
-79 161 -107 40 -29 73 -51 73 -48 0 5 -168 139 -265 211 -300 221 -708 445
-1030 568 -38 15 -81 32 -95 38 -56 24 -333 112 -440 140 -290 76 -607 133
-875 159 -108 10 -777 20 -865 13z"/>
<path d="M8540 4515 c-320 -27 -590 -68 -850 -131 -724 -174 -1322 -464 -1885
-913 -135 -107 -128 -107 25 0 233 163 605 360 875 463 39 15 81 32 95 38 37
15 224 77 315 103 286 83 556 135 885 171 408 44 907 32 1349 -32 l104 -15 22
23 c12 13 68 73 124 135 93 102 100 113 79 117 -57 13 -276 37 -408 46 -193
13 -538 10 -730 -5z"/>
<path d="M1685 4114 c-351 -21 -551 -40 -793 -78 -90 -14 -166 -26 -168 -26
-19 0 12 -41 99 -132 l102 -107 145 24 c344 59 616 84 1000 92 765 15 1445
-97 2165 -357 276 -100 711 -316 920 -456 117 -79 114 -68 -13 39 -389 328
-867 586 -1392 750 -451 141 -857 212 -1415 247 -143 9 -520 11 -650 4z"/>
<path d="M8230 4079 c-379 -23 -843 -103 -1210 -208 -246 -71 -607 -215 -797
-318 -217 -118 -368 -212 -521 -325 -90 -68 -292 -235 -292 -243 0 -3 51 29
113 69 420 274 995 513 1552 646 231 55 471 97 780 135 212 26 803 34 1085 15
190 -14 421 -41 642 -77 92 -15 169 -25 171 -22 1 2 47 52 101 112 55 59 97
110 94 112 -23 23 -513 86 -808 105 -186 11 -720 11 -910 -1z"/>
<path d="M7930 3700 c-556 -34 -1088 -162 -1685 -404 -211 -86 -598 -288 -846
-443 -47 -29 -89 -53 -93 -53 -4 0 -37 20 -74 44 -265 172 -694 382 -1031 503
-225 81 -362 123 -561 174 -441 111 -829 160 -1266 160 -547 0 -1008 -75
-1519 -246 -186 -62 -381 -137 -397 -153 -4 -4 102 -83 236 -174 l243 -167 94
35 c259 96 638 182 974 221 210 24 761 25 960 1 700 -85 1289 -304 1875 -699
104 -70 163 -113 332 -246 49 -38 62 -43 125 -49 l71 -7 67 49 c120 87 148
107 255 175 224 142 447 263 702 378 87 39 160 71 164 71 3 0 20 6 37 14 72
33 330 122 477 165 754 219 1527 232 2225 36 125 -35 374 -119 407 -136 15 -8
44 8 161 87 278 190 317 217 317 226 0 9 -109 64 -205 104 -409 170 -864 280
-1330 324 -159 15 -547 20 -715 10z"/>
</g>
</svg>
